<?xml version="1.0" encoding="UTF-8"?>
<svg width="19px" height="19px" viewBox="0 0 19 19" version="1.1" xmlns="http://www.w3.org/2000/svg" xmlns:xlink="http://www.w3.org/1999/xlink">
    <!-- Generator: Sketch 49.3 (51167) - http://www.bohemiancoding.com/sketch -->
    <title>Page 1</title>
    <desc>Created with Sketch.</desc>
    <defs>
        <polygon id="path-1" points="0.309066667 0.0709333333 7.8964 0.0709333333 7.8964 7.65687333 0.309066667 7.65687333"></polygon>
    </defs>
    <g id="Symbols" stroke="none" stroke-width="1" fill="none" fill-rule="evenodd">
        <g id="Header-360" transform="translate(-323.000000, -14.000000)">
            <g id="Page-1" transform="translate(323.000000, 14.000000)">
                <g id="Group-3" transform="translate(5.066667, 0.245860)">
                    <mask id="mask-2" fill="white">
                        <use xlink:href="#path-1"></use>
                    </mask>
                    <g id="Clip-2"></g>
                    <path d="M4.10273333,0.0708066667 C2.00766667,0.0708066667 0.309066667,1.76940667 0.309066667,3.86447333 C0.309066667,5.95827333 2.00766667,7.65687333 4.10273333,7.65687333 C6.1978,7.65687333 7.8964,5.95827333 7.8964,3.86447333 C7.8964,1.76940667 6.1978,0.0708066667 4.10273333,0.0708066667 M4.10273333,1.75927333 C5.263,1.75927333 6.20666667,2.70420667 6.20666667,3.86447333 C6.20666667,5.02474 5.263,5.96840667 4.10273333,5.96840667 C2.94246667,5.96840667 1.9988,5.02474 1.9988,3.86447333 C1.9988,2.70420667 2.94246667,1.75927333 4.10273333,1.75927333" id="Fill-1" fill="#787878" mask="url(#mask-2)"></path>
                </g>
                <path d="M9.14064667,10.3640883 C5.13074737,10.3640883 1.85365679,13.2095025 1.50739759,16.8180717 L16.7738957,16.8180717 C16.4276365,13.2095025 13.150546,10.3640883 9.14064667,10.3640883 Z M0.210805,18.0844217 L0.210805,17.4512467 C0.210805,12.8274699 4.21908293,9.09773833 9.14064667,9.09773833 C14.0622104,9.09773833 18.0704883,12.8274699 18.0704883,17.4512467 L18.0704883,18.0844217 L0.210805,18.0844217 Z" id="Stroke-4" fill="#787878" fill-rule="nonzero"></path>
            </g>
        </g>
    </g>
</svg>