<?xml version="1.0" encoding="UTF-8"?>
<svg width="22px" height="22px" viewBox="0 0 22 22" version="1.1" xmlns="http://www.w3.org/2000/svg" xmlns:xlink="http://www.w3.org/1999/xlink">
    <!-- Generator: Sketch 49 (51002) - http://www.bohemiancoding.com/sketch -->
    <title>Page 1</title>
    <desc>Created with Sketch.</desc>
    <defs></defs>
    <g id="AP-News-web" stroke="none" stroke-width="1" fill="none" fill-rule="evenodd">
        <g id="320-Index" transform="translate(-282.000000, -9.000000)">
            <g id="Page-1" transform="translate(282.000000, 9.000000)">
                <g id="Group-3" fill="#787878">
                    <path d="M10.9998,-0.0001 C4.9248,-0.0001 -0.0002,4.9249 -0.0002,10.9999 C-0.0002,17.0749 4.9248,21.9999 10.9998,21.9999 C17.0748,21.9999 21.9998,17.0749 21.9998,10.9999 C21.9998,4.9249 17.0748,-0.0001 10.9998,-0.0001 M10.9998,0.9099 C16.5638,0.9099 21.0898,5.4369 21.0898,10.9999 C21.0898,16.5639 16.5638,21.0899 10.9998,21.0899 C5.4368,21.0899 0.9098,16.5639 0.9098,10.9999 C0.9098,5.4369 5.4368,0.9099 10.9998,0.9099" id="Fill-1"></path>
                </g>
                <path d="M10.4119,6.163 C9.4019,6.163 8.3919,6.548 7.6219,7.319 C6.0819,8.859 6.0819,11.357 7.6219,12.898 C8.3919,13.668 9.4019,14.053 10.4119,14.053 C11.4209,14.053 12.4309,13.668 13.2019,12.898 C14.7419,11.357 14.7419,8.859 13.2019,7.319 C12.4309,6.548 11.4209,6.163 10.4119,6.163 M10.4119,7.073 C11.2229,7.073 11.9849,7.389 12.5579,7.962 C13.1319,8.535 13.4469,9.298 13.4469,10.108 C13.4469,10.919 13.1319,11.681 12.5579,12.255 C11.9849,12.828 11.2229,13.143 10.4119,13.143 C9.6009,13.143 8.8389,12.828 8.2659,12.255 C7.6919,11.681 7.3759,10.919 7.3759,10.108 C7.3759,9.298 7.6919,8.535 8.2659,7.962 C8.8389,7.389 9.6009,7.073 10.4119,7.073" id="Fill-4" fill="#787878"></path>
                <path d="M13.2014,12.8978 L15.5334,15.2298" id="Stroke-6" stroke="#787878" stroke-width="0.91"></path>
            </g>
        </g>
    </g>
</svg>